# xmcd
#
# Track frame offsets:
#	180
#	14381
#	32155
#	44920
#	60155
#	79447
#	94130
#	104988
#
# Disc length: 1635 seconds
#
# Revision: 1
# Processed by: cddbd v1.4PL0 Copyright (c) Steve Scherf et al.
# Submitted via: audiograbber 1.80
#
DISCID=6d066108
DTITLE=Russell Jackson Band - The Alley Man
DYEAR=1900
DGENRE=
TTITLE0=A Woman Needs
TTITLE1="99"
TTITLE2=Honey Let Me In
TTITLE3=Tossin' and Turnin'
TTITLE4=Blues with a Feeling
TTITLE5=Show me the Door
TTITLE6=J.D. Blooze
TTITLE7=I Hear Some Blues Downstairs
EXTD=http://www.russelljacksonband.com
EXTT0=
EXTT1=
EXTT2=
EXTT3=
EXTT4=
EXTT5=
EXTT6=
EXTT7=
PLAYORDER=
